<?xml version="1.0" encoding="utf-8"?>
<svg xmlns="http://www.w3.org/2000/svg" xmlns:xlink="http://www.w3.org/1999/xlink" width="552" height="502.249" viewBox="0 0 552 502.249">
  <defs>
    <clipPath id="clip-path">
      <rect width="117" height="148" fill="none"/>
    </clipPath>
  </defs>
  <g id="objectif_lead_intro" transform="translate(-184.701 -37.112)">
    <g id="undraw_web_shopping_dd4l" transform="translate(184.701 39.112)">
      <g id="Pattern_Dot_Violet" data-name="Pattern Dot Violet" transform="translate(0 -2)">
        <g id="Grille_de_répétition_40" data-name="Grille de répétition 40" clip-path="url(#clip-path)">
          <g transform="translate(-655 -193)">
            <circle id="Ellipse_8" data-name="Ellipse 8" cx="4.5" cy="4.5" r="4.5" transform="translate(655 193)" fill="#5de8c1"/>
          </g>
          <g transform="translate(-621 -193)">
            <circle id="Ellipse_8-2" data-name="Ellipse 8" cx="4.5" cy="4.5" r="4.5" transform="translate(655 193)" fill="#5de8c1"/>
          </g>
          <g transform="translate(-587 -193)">
            <circle id="Ellipse_8-3" data-name="Ellipse 8" cx="4.5" cy="4.5" r="4.5" transform="translate(655 193)" fill="#5de8c1"/>
          </g>
          <g transform="translate(-553 -193)">
            <circle id="Ellipse_8-4" data-name="Ellipse 8" cx="4.5" cy="4.5" r="4.5" transform="translate(655 193)" fill="#5de8c1"/>
          </g>
          <g transform="translate(-655 -159)">
            <circle id="Ellipse_8-5" data-name="Ellipse 8" cx="4.5" cy="4.5" r="4.5" transform="translate(655 193)" fill="#5de8c1"/>
          </g>
          <g transform="translate(-621 -159)">
            <circle id="Ellipse_8-6" data-name="Ellipse 8" cx="4.5" cy="4.5" r="4.5" transform="translate(655 193)" fill="#5de8c1"/>
          </g>
          <g transform="translate(-587 -159)">
            <circle id="Ellipse_8-7" data-name="Ellipse 8" cx="4.5" cy="4.5" r="4.5" transform="translate(655 193)" fill="#5de8c1"/>
          </g>
          <g transform="translate(-553 -159)">
            <circle id="Ellipse_8-8" data-name="Ellipse 8" cx="4.5" cy="4.5" r="4.5" transform="translate(655 193)" fill="#5de8c1"/>
          </g>
          <g transform="translate(-655 -125)">
            <circle id="Ellipse_8-9" data-name="Ellipse 8" cx="4.5" cy="4.5" r="4.5" transform="translate(655 193)" fill="#5de8c1"/>
          </g>
          <g transform="translate(-621 -125)">
            <circle id="Ellipse_8-10" data-name="Ellipse 8" cx="4.5" cy="4.5" r="4.5" transform="translate(655 193)" fill="#5de8c1"/>
          </g>
          <g transform="translate(-587 -125)">
            <circle id="Ellipse_8-11" data-name="Ellipse 8" cx="4.5" cy="4.5" r="4.5" transform="translate(655 193)" fill="#5de8c1"/>
          </g>
          <g transform="translate(-553 -125)">
            <circle id="Ellipse_8-12" data-name="Ellipse 8" cx="4.5" cy="4.5" r="4.5" transform="translate(655 193)" fill="#5de8c1"/>
          </g>
          <g transform="translate(-655 -91)">
            <circle id="Ellipse_8-13" data-name="Ellipse 8" cx="4.5" cy="4.5" r="4.5" transform="translate(655 193)" fill="#5de8c1"/>
          </g>
          <g transform="translate(-621 -91)">
            <circle id="Ellipse_8-14" data-name="Ellipse 8" cx="4.5" cy="4.5" r="4.5" transform="translate(655 193)" fill="#5de8c1"/>
          </g>
          <g transform="translate(-587 -91)">
            <circle id="Ellipse_8-15" data-name="Ellipse 8" cx="4.5" cy="4.5" r="4.5" transform="translate(655 193)" fill="#5de8c1"/>
          </g>
          <g transform="translate(-553 -91)">
            <circle id="Ellipse_8-16" data-name="Ellipse 8" cx="4.5" cy="4.5" r="4.5" transform="translate(655 193)" fill="#5de8c1"/>
          </g>
          <g transform="translate(-655 -57)">
            <circle id="Ellipse_8-17" data-name="Ellipse 8" cx="4.5" cy="4.5" r="4.5" transform="translate(655 193)" fill="#5de8c1"/>
          </g>
          <g transform="translate(-621 -57)">
            <circle id="Ellipse_8-18" data-name="Ellipse 8" cx="4.5" cy="4.5" r="4.5" transform="translate(655 193)" fill="#5de8c1"/>
          </g>
          <g transform="translate(-587 -57)">
            <circle id="Ellipse_8-19" data-name="Ellipse 8" cx="4.5" cy="4.5" r="4.5" transform="translate(655 193)" fill="#5de8c1"/>
          </g>
          <g transform="translate(-553 -57)">
            <circle id="Ellipse_8-20" data-name="Ellipse 8" cx="4.5" cy="4.5" r="4.5" transform="translate(655 193)" fill="#5de8c1"/>
          </g>
        </g>
      </g>
    </g>
    <g id="Groupe_2969" data-name="Groupe 2969" transform="translate(112.635 -21)">
      <ellipse id="Ellipse_718" data-name="Ellipse 718" cx="186.742" cy="9.381" rx="186.742" ry="9.381" transform="translate(188.385 509.525)" fill="#572ce8" opacity="0.1"/>
      <g id="Groupe_1563" data-name="Groupe 1563" transform="translate(273.971 422.041)">
        <path id="Tracé_5256" data-name="Tracé 5256" d="M616.9,755.273v4.985H469.48V756.2a48.449,48.449,0,0,0,3.334-89.483H615.9a48.5,48.5,0,0,0,1,88.553Z" transform="translate(-448.165 -666.72)" fill="#e5e5e8"/>
        <path id="Tracé_5257" data-name="Tracé 5257" d="M617.807,666.72a48.531,48.531,0,0,0-26.774,32.129H501.5A48.531,48.531,0,0,0,474.73,666.72Z" transform="translate(-450.069 -666.72)" opacity="0.1"/>
        <path id="Tracé_5259" data-name="Tracé 5259" d="M616.9,802.715V807.7H469.48v-4.054a48.286,48.286,0,0,0,11.373-6.056H607.865A48.526,48.526,0,0,0,616.9,802.715Z" transform="translate(-448.165 -714.163)" opacity="0.1"/>
        <rect id="Rectangle_1378" data-name="Rectangle 1378" width="190.047" height="12.388" rx="6.194" transform="translate(0 86.174)" fill="#e5e5e8"/>
      </g>
      <g id="Groupe_1562" data-name="Groupe 1562" transform="translate(131.004 114.953)">
        <rect id="Rectangle_1441" data-name="Rectangle 1441" width="475.362" height="313.756" rx="19" transform="translate(0 0)" fill="#070723"/>
        <g id="Groupe_1561" data-name="Groupe 1561" transform="translate(8.339 11.133)">
          <path id="Tracé_5261" data-name="Tracé 5261" d="M683.243,156.456v268.17a12.437,12.437,0,0,1-12.437,12.437H237.847a12.431,12.431,0,0,1-12.437-12.437V156.456A12.437,12.437,0,0,1,237.847,144H670.806A12.444,12.444,0,0,1,683.243,156.456Z" transform="translate(-225.154 -144)" fill="#eee9fd"/>
          <g id="Groupe_1560" data-name="Groupe 1560" transform="translate(0 0)">
            <path id="Tracé_5262" data-name="Tracé 5262" d="M683.237,156.456H225.41A12.431,12.431,0,0,1,237.847,144H670.8a12.431,12.431,0,0,1,12.437,12.456Z" transform="translate(-225.41 -144)" fill="#fff"/>
            <circle id="Ellipse_227" data-name="Ellipse 227" cx="3.111" cy="3.111" r="3.111" transform="translate(9.327 3.124)" fill="#dfe3ef"/>
            <circle id="Ellipse_228" data-name="Ellipse 228" cx="3.111" cy="3.111" r="3.111" transform="translate(18.653 3.124)" fill="#dfe3ef"/>
            <circle id="Ellipse_229" data-name="Ellipse 229" cx="3.111" cy="3.111" r="3.111" transform="translate(27.979 3.124)" fill="#dfe3ef"/>
          </g>
          <g id="Groupe_2967" data-name="Groupe 2967" transform="translate(27.303 28.371)">
            <rect id="Rectangle_2049" data-name="Rectangle 2049" width="403.567" height="235.838" rx="10" transform="translate(0)" fill="#fff"/>
            <path id="Tracé_8488" data-name="Tracé 8488" d="M398.85,534.155h14.879v2.785H398.85Zm7.443-7.443a1.859,1.859,0,1,0-.515-3.648L401.9,520.23l-.23.209,2.841,3.871a1.971,1.971,0,0,0-.077.543,1.852,1.852,0,0,0,1.859,1.859Z" transform="translate(-329.899 -334.864)" fill="#5de8c1" stroke="#5de8c1" stroke-width="0.5"/>
            <g id="Tracé_8489" data-name="Tracé 8489" transform="translate(-327.87 -331.604)" fill="#5de8c1" stroke-linecap="round" stroke-linejoin="round">
              <path d="M 413.8903198242188 529.287109375 L 413.7683410644531 529.287109375 L 410.3497009277344 529.287109375 L 410.2439575195313 529.287109375 L 410.1702880859375 529.211181640625 L 409.9405517578125 528.9744262695313 L 408.6555480957031 527.6964721679688 L 408.4773254394531 527.5192260742188 L 408.6555480957031 527.3419799804688 L 409.9924011230469 526.01220703125 L 410.168701171875 525.8368530273438 L 410.3450012207031 526.01220703125 L 411.4276428222656 527.0889892578125 C 412.3936157226563 525.8303833007813 413.0076293945313 524.349853515625 413.2158813476563 522.7770385742188 L 411.6795959472656 522.7770385742188 L 411.4295959472656 522.7770385742188 L 411.4295959472656 522.5270385742188 L 411.4295959472656 520.6610717773438 L 411.4295959472656 520.4110717773438 L 411.6795959472656 520.4110717773438 L 413.2158813476563 520.4110717773438 C 413.0075988769531 518.8381958007813 412.3937072753906 517.3578491210938 411.4276428222656 516.0992431640625 L 410.3450012207031 517.1759643554688 L 410.168701171875 517.351318359375 L 409.9924011230469 517.1759643554688 L 408.6555480957031 515.84619140625 L 408.4778137207031 515.66943359375 L 408.6550598144531 515.4921875 L 409.7376708984375 514.4095458984375 C 408.4772644042969 513.4425659179688 406.9946899414063 512.82861328125 405.4195251464844 512.6213989257813 L 405.4195251464844 514.1510009765625 L 405.4195251464844 514.4010009765625 L 405.1695251464844 514.4010009765625 L 403.3104858398438 514.4010009765625 L 403.0604858398438 514.4010009765625 L 403.0604858398438 514.1510009765625 L 403.0604858398438 512.6212158203125 C 401.4865112304688 512.8272705078125 400.0060119628906 513.4413452148438 398.7483215332031 514.4096069335938 L 399.8254089355469 515.49267578125 L 400.001220703125 515.66943359375 L 399.8249206542969 515.845703125 L 398.4950256347656 517.1754760742188 L 398.3187561035156 517.3517456054688 L 398.1419677734375 517.1759643554688 L 397.0589599609375 516.098876953125 C 396.0903015136719 517.3565063476563 395.4762268066406 518.8370971679688 395.2705688476563 520.4110717773438 L 396.8004150390625 520.4110717773438 L 397.0504150390625 520.4110717773438 L 397.0504150390625 520.6610717773438 L 397.0504150390625 522.5270385742188 L 397.0504150390625 522.7770385742188 L 396.8004150390625 522.7770385742188 L 395.2705688476563 522.7770385742188 C 395.4762268066406 524.3510131835938 396.0903015136719 525.8316650390625 397.0589599609375 527.0892944335938 L 398.1419677734375 526.01220703125 L 398.3173522949219 525.8377685546875 L 398.49365234375 526.0112915039063 L 399.8443908691406 527.341064453125 L 400.0239562988281 527.517822265625 L 399.8457946777344 527.6959838867188 L 398.5646667480469 528.9771118164063 L 398.3279724121094 529.2138671875 L 398.2547607421875 529.287109375 L 398.1511840820313 529.287109375 L 394.7325744628906 529.287109375 L 394.610595703125 529.287109375 L 394.5355224609375 529.1909790039063 C 393.1106262207031 527.3660888671875 392.2298278808594 525.1843872070313 391.9883117675781 522.8817749023438 C 391.746826171875 520.5791015625 392.1558532714844 518.261962890625 393.171142578125 516.1808471679688 C 394.1853942871094 514.102294921875 395.7579956054688 512.3552856445313 397.7189636230469 511.1287231445313 C 399.6777038574219 509.903564453125 401.93359375 509.2540283203125 404.2434997558594 509.2501220703125 L 404.2434997558594 509.2500915527344 L 404.2643432617188 509.2500915527344 L 404.2643432617188 509.2501220703125 C 406.5733642578125 509.2555236816406 408.8275451660156 509.9055480957031 410.7845764160156 511.1303405761719 C 412.7455139160156 512.3576049804688 414.3178405761719 514.1053466796875 415.3315734863281 516.1846923828125 C 416.3458862304688 518.2652587890625 416.7542114257813 520.5817260742188 416.5124206542969 522.8836669921875 C 416.2706298828125 525.1856079101563 415.3898620605469 527.3666381835938 413.9653930664063 529.1909790039063 L 413.8903198242188 529.287109375 Z" stroke="none"/>
              <path d="M 404.2434997558594 509.5001220703125 C 404.2460327148438 509.5001220703125 404.2485961914063 509.5001220703125 404.2511291503906 509.5001220703125 C 404.2556457519531 509.5001220703125 404.2598266601563 509.5001220703125 404.2643432617188 509.5001220703125 L 404.2434997558594 509.5001220703125 M 404.2511291503906 509.5001220703125 C 399.6339721679688 509.5052490234375 395.4212036132813 512.1396484375 393.3958435058594 516.2904663085938 C 391.3684387207031 520.4461059570313 391.8873291015625 525.3931884765625 394.7325744628906 529.037109375 L 398.1511840820313 529.037109375 L 398.3878784179688 528.8003540039063 L 399.6690063476563 527.5192260742188 L 398.3182678222656 526.189453125 L 397.0371398925781 527.463623046875 C 395.883056640625 526.0557861328125 395.1708984375 524.3383178710938 394.9901428222656 522.5270385742188 L 396.8004150390625 522.5270385742188 L 396.8004150390625 520.6610717773438 L 394.9901428222656 520.6610717773438 C 395.1708984375 518.849853515625 395.883056640625 517.1323852539063 397.0371398925781 515.724609375 L 398.3182678222656 516.9987182617188 L 399.6481323242188 515.6689453125 L 398.3739929199219 514.3877563476563 C 399.7819213867188 513.2340698242188 401.4992980957031 512.52197265625 403.3104858398438 512.3406982421875 L 403.3104858398438 514.1510009765625 L 405.1695251464844 514.1510009765625 L 405.1695251464844 512.3406982421875 C 406.9824523925781 512.5234985351563 408.7015991210938 513.2353515625 410.1129760742188 514.3878173828125 L 408.8318481445313 515.6689453125 L 410.168701171875 516.9987182617188 L 411.4498291015625 515.724609375 C 412.6009826660156 517.1339721679688 413.3128051757813 518.8505859375 413.4967956542969 520.6610717773438 L 411.6795959472656 520.6610717773438 L 411.6795959472656 522.5270385742188 L 413.4967956542969 522.5270385742188 C 413.3128051757813 524.337646484375 412.6009826660156 526.05419921875 411.4498291015625 527.463623046875 L 410.168701171875 526.189453125 L 408.8318481445313 527.5192260742188 L 410.1199645996094 528.8003540039063 L 410.3497009277344 529.037109375 L 413.7683410644531 529.037109375 C 416.61279296875 525.3942260742188 417.1322326660156 520.44873046875 415.1068420410156 516.2942504882813 C 413.0825805664063 512.1420288085938 408.8699951171875 509.5057983398438 404.2511291503906 509.5001220703125 M 404.2434997558594 509.0001220703125 L 404.2643432617188 509.0001220703125 C 404.2666931152344 509.0001220703125 404.2690734863281 509.0001220703125 404.2714233398438 509.0001831054688 C 406.62451171875 509.0067749023438 408.9222717285156 509.6698608398438 410.9172058105469 510.9183959960938 C 412.9178466796875 512.1704711914063 414.5220031738281 513.9536743164063 415.5562744140625 516.0751342773438 C 416.5911254882813 518.1978149414063 417.0077209472656 520.5612182617188 416.7610473632813 522.9097290039063 C 416.5143737792969 525.25830078125 415.6157836914063 527.4835205078125 414.1624450683594 529.3448486328125 C 414.0676879882813 529.4661865234375 413.9223022460938 529.537109375 413.7683410644531 529.537109375 L 410.3497009277344 529.537109375 C 410.2144775390625 529.537109375 410.0850219726563 529.4822998046875 409.9908752441406 529.38525390625 L 409.7643127441406 529.1517944335938 L 408.479248046875 527.873779296875 C 408.3849182128906 527.7799072265625 408.3318481445313 527.65234375 408.3318481445313 527.519287109375 C 408.3318481445313 527.3861694335938 408.3848876953125 527.258544921875 408.479248046875 527.1647338867188 L 409.8161010742188 525.8349609375 C 409.9136047363281 525.7379760742188 410.0411682128906 525.689453125 410.168701171875 525.689453125 C 410.2962341308594 525.689453125 410.4237670898438 525.7379760742188 410.5213012695313 525.8349609375 L 411.3991088867188 526.7080078125 C 412.1851806640625 525.6124877929688 412.7058715820313 524.3572998046875 412.9259338378906 523.0270385742188 L 411.6795959472656 523.0270385742188 C 411.4034423828125 523.0270385742188 411.1795959472656 522.8031616210938 411.1795959472656 522.5270385742188 L 411.1795959472656 520.6610717773438 C 411.1795959472656 520.3849487304688 411.4034423828125 520.1610717773438 411.6795959472656 520.1610717773438 L 412.9259338378906 520.1610717773438 C 412.7058410644531 518.8308715820313 412.1851806640625 517.57568359375 411.3991088867188 516.480224609375 L 410.5212707519531 517.3532104492188 C 410.4237670898438 517.4501953125 410.2962341308594 517.4987182617188 410.168701171875 517.4987182617188 C 410.0411376953125 517.4987182617188 409.9136352539063 517.4501953125 409.8161010742188 517.3532104492188 L 408.479248046875 516.0234375 C 408.3850708007813 515.9297485351563 408.33203125 515.8024291992188 408.3318481445313 515.6696166992188 C 408.3316650390625 515.5368041992188 408.3843688964844 515.4093017578125 408.4783020019531 515.3153686523438 L 409.3560180664063 514.4376831054688 C 408.2588806152344 513.65087890625 407.0018005371094 513.1303100585938 405.6695251464844 512.9110717773438 L 405.6695251464844 514.1510009765625 C 405.6695251464844 514.4271240234375 405.4456787109375 514.6510009765625 405.1695251464844 514.6510009765625 L 403.3104858398438 514.6510009765625 C 403.0343322753906 514.6510009765625 402.8104858398438 514.4271240234375 402.8104858398438 514.1510009765625 L 402.8104858398438 512.9107055664063 C 401.4792785644531 513.129150390625 400.2238464355469 513.6499633789063 399.1289978027344 514.4378662109375 L 400.0026550292969 515.3163452148438 C 400.197021484375 515.5117797851563 400.1965637207031 515.82763671875 400.0016784667969 516.0225219726563 L 398.6718139648438 517.352294921875 C 398.5741882324219 517.4498901367188 398.4462280273438 517.4987182617188 398.3182678222656 517.4987182617188 C 398.1907348632813 517.4987182617188 398.063232421875 517.4502563476563 397.9656982421875 517.3532104492188 L 397.087158203125 516.4794921875 C 396.2988891601563 517.5743408203125 395.7781677246094 518.829833984375 395.5600280761719 520.1610717773438 L 396.8004150390625 520.1610717773438 C 397.0765686035156 520.1610717773438 397.3004150390625 520.3849487304688 397.3004150390625 520.6610717773438 L 397.3004150390625 522.5270385742188 C 397.3004150390625 522.8031616210938 397.0765686035156 523.0270385742188 396.8004150390625 523.0270385742188 L 395.5600280761719 523.0270385742188 C 395.7781372070313 524.3583374023438 396.2988891601563 525.61376953125 397.087158203125 526.7086791992188 L 397.9656677246094 525.8349609375 C 398.0631713867188 525.7379760742188 398.1907348632813 525.689453125 398.3182678222656 525.689453125 C 398.4449768066406 525.689453125 398.5717163085938 525.7373046875 398.6690368652344 525.8331298828125 L 400.019775390625 527.1629028320313 C 400.1147766113281 527.2564697265625 400.1684875488281 527.3839721679688 400.1690063476563 527.5172729492188 C 400.1695251464844 527.6505126953125 400.1167907714844 527.778564453125 400.0225524902344 527.872802734375 L 398.7414245605469 529.1539306640625 L 398.5047912597656 529.390625 C 398.4110107421875 529.484375 398.2838134765625 529.537109375 398.1511840820313 529.537109375 L 394.7325744628906 529.537109375 C 394.57861328125 529.537109375 394.4332275390625 529.4661865234375 394.3384704589844 529.3448486328125 C 392.8847045898438 527.4829711914063 391.9860534667969 525.257080078125 391.7396850585938 522.9078369140625 C 391.4933166503906 520.5585327148438 391.9106140136719 518.1944580078125 392.9464721679688 516.0712280273438 C 393.9812622070313 513.9505615234375 395.5857238769531 512.1681518554688 397.58642578125 510.916748046875 C 399.5833435058594 509.667724609375 401.883056640625 509.005126953125 404.2379455566406 509.0001831054688 C 404.2398071289063 509.0001220703125 404.2416381835938 509.0001220703125 404.2434997558594 509.0001220703125 Z" stroke="none" fill="#5de8c1"/>
            </g>
            <path id="Tracé_8490" data-name="Tracé 8490" d="M408.166,436.365a6.264,6.264,0,0,1-2.493-.634.446.446,0,0,0-.634.439l.2,2.966a.23.23,0,0,0,.369.16l.842-.641a.23.23,0,0,1,.327.063l1.191,1.866a.23.23,0,0,0,.383,0l1.2-1.866a.23.23,0,0,1,.334-.028l.842.641a.23.23,0,0,0,.369-.16l.2-2.966a.453.453,0,0,0-.634-.439,6.315,6.315,0,0,1-2.493.634Z" transform="translate(-331.779 -309.186)" fill="#5de8c1"/>
            <g id="Tracé_8491" data-name="Tracé 8491" transform="translate(-329.496 -299.205)" fill="#5de8c1" stroke-linecap="round" stroke-linejoin="round">
              <path d="M 412.771484375 426.4696960449219 C 412.6296691894531 426.4696960449219 412.4930114746094 426.4271240234375 412.3763122558594 426.3465881347656 L 408.6426391601563 423.8131103515625 C 407.8958129882813 424.4688415527344 406.947998046875 424.8556213378906 405.9515991210938 424.9074401855469 L 405.9378051757813 424.9081420898438 L 405.9240417480469 424.9073486328125 C 404.9166564941406 424.8485107421875 403.9505920410156 424.4608459472656 403.1820373535156 423.8107604980469 L 399.4364624023438 426.3478088378906 C 399.3216247558594 426.4270935058594 399.1849670410156 426.4696960449219 399.0431213378906 426.4696960449219 C 398.942138671875 426.4696960449219 398.8443908691406 426.4483032226563 398.7525939941406 426.4061279296875 C 398.5329895019531 426.3050537109375 398.3802795410156 426.0942687988281 398.3522644042969 425.8546752929688 L 397.2811279296875 419.3651123046875 C 397.2471008300781 419.1355590820313 397.3218994140625 418.9032592773438 397.4806213378906 418.7396240234375 L 400.1953735351563 415.9569702148438 C 400.2166748046875 411.2215270996094 401.7132263183594 407.8643188476563 402.9701538085938 405.8774108886719 C 404.3472595214844 403.7004699707031 405.7110595703125 402.6721801757813 405.7684631347656 402.6294555664063 L 405.91796875 402.5181884765625 L 406.0673217773438 402.6296997070313 C 406.1241455078125 402.6721496582031 407.474609375 403.6939392089844 408.8379516601563 405.8677978515625 C 410.0821228027344 407.8515319824219 411.5634765625 411.2074279785156 411.5843811035156 415.9569702148438 L 414.2923278808594 418.7326049804688 C 414.4613037109375 418.8841552734375 414.5527648925781 419.1003723144531 414.5435180664063 419.3276672363281 L 414.5428771972656 419.3431396484375 L 414.5403747558594 419.3584289550781 L 413.4622802734375 425.8550109863281 C 413.4341430664063 426.094482421875 413.2814636230469 426.3050842285156 413.0621337890625 426.4060363769531 C 412.9701843261719 426.4483032226563 412.8724365234375 426.4696960449219 412.771484375 426.4696960449219 Z M 405.8275756835938 409.5570373535156 C 405.3892211914063 409.5570373535156 404.9638977050781 409.7384338378906 404.6606750488281 410.0547180175781 C 404.2008666992188 410.5343017578125 404.0810546875 411.2351684570313 404.3554077148438 411.8403015136719 C 404.61669921875 412.4166870117188 405.1942443847656 412.7891235351563 405.8267822265625 412.7891235351563 C 405.8509216308594 412.7891235351563 405.8751831054688 412.78857421875 405.8995056152344 412.7874755859375 L 405.9050903320313 412.7872314453125 L 405.90771484375 412.7872314453125 C 406.7713928222656 412.7661743164063 407.4599609375 412.0470581054688 407.4431762695313 411.1830139160156 L 407.4431457519531 411.1802368164063 L 407.4431457519531 411.1774597167969 C 407.4450073242188 410.5131225585938 407.0480651855469 409.9231872558594 406.4319152832031 409.6745300292969 C 406.2387084960938 409.5965576171875 406.035400390625 409.5570373535156 405.8275756835938 409.5570373535156 Z" stroke="none"/>
              <path d="M 412.7714538574219 426.2196960449219 C 412.834716796875 426.2196960449219 412.8982238769531 426.2062377929688 412.9575805664063 426.178955078125 C 413.1004943847656 426.1131591796875 413.1981201171875 425.9769897460938 413.2145690917969 425.820556640625 L 414.2937316894531 419.3175048828125 C 414.2999877929688 419.1634521484375 414.2359313964844 419.014892578125 414.1197204589844 418.9136962890625 L 411.3346252441406 416.0589599609375 C 411.3346252441406 406.8753051757813 405.917724609375 402.8300170898438 405.917724609375 402.8300170898438 C 405.917724609375 402.8300170898438 400.4451293945313 406.9031372070313 400.4451293945313 416.0589599609375 L 397.6600646972656 418.9136962890625 C 397.5545043945313 419.0225219726563 397.5055847167969 419.1744384765625 397.5278015136719 419.3244018554688 L 398.6000061035156 425.820556640625 C 398.6164245605469 425.9769897460938 398.7140502929688 426.1131591796875 398.8569946289063 426.178955078125 C 398.9163513183594 426.2062377929688 398.9798889160156 426.2196960449219 399.0431213378906 426.2196960449219 C 399.1321411132813 426.2196960449219 399.2205810546875 426.1930541992188 399.2962646484375 426.1408081054688 L 403.2022705078125 423.4951171875 C 403.9525451660156 424.1873168945313 404.9194946289063 424.5982666015625 405.9385986328125 424.6577758789063 C 406.9429931640625 424.6055297851563 407.8948059082031 424.1926879882813 408.6192321777344 423.4951171875 L 412.5182800292969 426.1408081054688 C 412.593994140625 426.1930541992188 412.6824645996094 426.2196960449219 412.7714538574219 426.2196960449219 M 405.8275756835938 409.3070373535156 C 406.0623168945313 409.3070373535156 406.299072265625 409.3513488769531 406.5254516601563 409.4426879882813 C 407.2328491210938 409.7281494140625 407.6952819824219 410.4153442382813 407.6931457519531 411.1781616210938 C 407.712646484375 412.1830444335938 406.9156188964844 413.0143432617188 405.9108581542969 413.0372314453125 L 405.9106750488281 413.0372314453125 C 405.8826293945313 413.0384826660156 405.8546447753906 413.0391235351563 405.8267822265625 413.0391235351563 C 405.0972595214844 413.0391235351563 404.4310302734375 412.6126708984375 404.1277160644531 411.9435424804688 C 403.8127136230469 411.248779296875 403.9523620605469 410.4322509765625 404.480224609375 409.8817138671875 C 404.8392028808594 409.5072631835938 405.3287048339844 409.3070373535156 405.8275756835938 409.3070373535156 M 412.771484375 426.7196960449219 C 412.5787353515625 426.7196960449219 412.3930053710938 426.6618347167969 412.2343444824219 426.5523681640625 L 408.6588134765625 424.126220703125 C 407.8945617675781 424.7428588867188 406.9521179199219 425.1057434082031 405.9645690917969 425.1571044921875 C 405.9559326171875 425.1575622558594 405.9472961425781 425.1577758789063 405.9386596679688 425.1577758789063 C 405.9289245605469 425.1577758789063 405.919189453125 425.1575012207031 405.9094543457031 425.1569213867188 C 404.9117431640625 425.0986633300781 403.9525756835938 424.7343139648438 403.1685180664063 424.1218872070313 L 399.57666015625 426.5547790527344 C 399.4216918945313 426.6618041992188 399.2359313964844 426.7196960449219 399.0431213378906 426.7196960449219 C 398.9058532714844 426.7196960449219 398.7729797363281 426.6906127929688 398.648193359375 426.6332702636719 C 398.3516845703125 426.4967956542969 398.1448669433594 426.2132568359375 398.1047668457031 425.8903198242188 L 397.0344848632813 419.4058227539063 C 397.0340270996094 419.4031372070313 397.0335998535156 419.400390625 397.033203125 419.397705078125 C 396.9884643554688 419.0957641601563 397.088623046875 418.78466796875 397.3011474609375 418.5655822753906 L 399.946044921875 415.8545227050781 C 399.9882202148438 411.1128234863281 401.4933471679688 407.7442626953125 402.7588806152344 405.7437438964844 C 404.1604919433594 403.528076171875 405.560302734375 402.4727478027344 405.6192016601563 402.4289245605469 C 405.7077941894531 402.3629760742188 405.8127746582031 402.3300170898438 405.917724609375 402.3300170898438 C 406.02294921875 402.3300170898438 406.128173828125 402.3631286621094 406.2168884277344 402.4293823242188 C 406.2752380371094 402.4729614257813 407.6618957519531 403.5220336914063 409.0497741699219 405.7349548339844 C 410.3022766113281 407.7320861816406 411.7919616699219 411.0999145507813 411.833740234375 415.8545532226563 L 414.4656982421875 418.5523376464844 C 414.6863403320313 418.7535400390625 414.8054809570313 419.0384521484375 414.7933349609375 419.3377990722656 C 414.79248046875 419.3584289550781 414.7903747558594 419.3789978027344 414.7869873046875 419.3993530273438 L 413.7098388671875 425.8903198242188 C 413.669677734375 426.2132263183594 413.462890625 426.4967651367188 413.1666564941406 426.6331481933594 C 413.0415649414063 426.6906127929688 412.9087219238281 426.7196960449219 412.771484375 426.7196960449219 Z M 405.8275756835938 409.8070373535156 C 405.4570007324219 409.8070373535156 405.0974731445313 409.9603881835938 404.8411560058594 410.2277526855469 C 404.4524536132813 410.6331176757813 404.3511657714844 411.2255554199219 404.5830993652344 411.737060546875 C 404.8039855957031 412.2243041992188 405.2921447753906 412.5391235351563 405.8267517089844 412.5391235351563 C 405.84716796875 412.5391235351563 405.86767578125 412.5386657714844 405.8882141113281 412.5377197265625 C 405.8924865722656 412.5375366210938 405.896728515625 412.5374145507813 405.9010009765625 412.5373229980469 C 406.6278076171875 412.5199890136719 407.2073364257813 411.9149169921875 407.1932373046875 411.1878662109375 C 407.1931457519531 411.1841735839844 407.1931457519531 411.1804504394531 407.1931457519531 411.1767578125 C 407.1947326660156 410.6152038574219 406.8591918945313 410.1165466308594 406.3383483886719 409.9063720703125 C 406.1750183105469 409.8404541015625 406.003173828125 409.8070373535156 405.8275756835938 409.8070373535156 Z" stroke="none" fill="#5de8c1"/>
            </g>
            <path id="Tracé_8492" data-name="Tracé 8492" d="M414.4,324.8h-.293c-.383,0-.7-.049-.738-.432h0c-.849-7.9-5.828-8.049-5.828-9.908s4.985-2.012,5.828-9.908h0c.042-.383.355-.432.738-.432h.293a.836.836,0,0,0,.842-.773.822.822,0,0,0-.815-.856H395.845a.836.836,0,0,0-.836.773.815.815,0,0,0,.815.856h.32c.376,0,.7.049.738.432h0c.849,7.9,5.828,8.049,5.828,9.908s-4.985,2.012-5.828,9.908h0c-.042.383-.362.432-.738.432h-.3a.836.836,0,0,0-.836.773.815.815,0,0,0,.815.856h18.6a.815.815,0,0,0,.815-.856.842.842,0,0,0-.843-.773Zm-14.663-1.984c1.671-4.644,4.623-4.08,4.623-5.911v-3.231c0-1.128-2.138-1.915-3.481-3.746a.453.453,0,0,1,.376-.7h7.729a.453.453,0,0,1,.39.7c-1.316,1.838-3.481,2.625-3.481,3.753v3.231c0,1.817,2.841,1.323,4.637,5.911.167.411.042.926-.4.926h-9.991C399.688,323.733,399.584,323.232,399.737,322.814Z" transform="translate(-328.732 -268.728)" fill="#5de8c1" stroke="#5de8c1" stroke-width="0.5"/>
            <path id="Tracé_8493" data-name="Tracé 8493" d="M693.447,316.285a7.749,7.749,0,0,1-7.729,7.763H486.762a7.763,7.763,0,1,1,0-15.52H685.719A7.756,7.756,0,0,1,693.447,316.285Z" transform="translate(-354.173 -270.562)" fill="#5a5773" opacity="0.2"/>
            <path id="Tracé_8494" data-name="Tracé 8494" d="M693.65,419.459a7.749,7.749,0,0,1-7.728,7.77H486.965a7.763,7.763,0,0,1,0-15.52H685.922A7.763,7.763,0,0,1,693.65,419.459Z" transform="translate(-354.376 -301.903)" fill="#5a5773" opacity="0.2"/>
            <path id="Tracé_8495" data-name="Tracé 8495" d="M693.447,523.479a7.749,7.749,0,0,1-7.728,7.75H486.762a7.763,7.763,0,1,1,0-15.52H685.719A7.756,7.756,0,0,1,693.447,523.479Z" transform="translate(-354.173 -333.489)" fill="#5a5773" opacity="0.2"/>
            <path id="Tracé_8496" data-name="Tracé 8496" d="M653.517,308.528v15.52H486.762a7.763,7.763,0,1,1,0-15.52Z" transform="translate(-354.173 -270.562)" fill="#572ce8"/>
            <path id="Tracé_8497" data-name="Tracé 8497" d="M683.311,411.69v15.534H486.965a7.763,7.763,0,0,1,0-15.52Z" transform="translate(-354.376 -301.896)" fill="#572ce8"/>
            <path id="Tracé_8498" data-name="Tracé 8498" d="M610.348,515.722v15.506H486.762a7.763,7.763,0,1,1,0-15.52Z" transform="translate(-354.173 -333.489)" fill="#572ce8"/>
          </g>
        </g>
      </g>
    </g>
    <path id="Tracé_8535" data-name="Tracé 8535" d="M953.44,731.65s9.611,2.271,10.212,3.809Z" transform="translate(-389.406 -294.739)" opacity="0.1"/>
    <path id="Tracé_8536" data-name="Tracé 8536" d="M890,743.25s-5.022,1.46-.162,4.373S890,743.25,890,743.25Z" transform="translate(-363.166 -299.371)" opacity="0.1"/>
    <g id="undraw_Status_update_re_dm9y" transform="translate(593.416 253.661)">
      <path id="Tracé_8550" data-name="Tracé 8550" d="M242.491,381.02a8.629,8.629,0,0,0,5.791-2.21,8.751,8.751,0,0,0,2.923-6.288l34.036-24.753a8.787,8.787,0,0,0,1.045-13.32l-25.34-25.339a7.466,7.466,0,0,0-12.745,5.279,16.983,16.983,0,0,0,4.327,10.445l17.205,17.206-27,21.525c-.083-.006-.166-.01-.251-.01a8.733,8.733,0,0,0-1,17.409A9.164,9.164,0,0,0,242.491,381.02Z" transform="translate(-172.135 -252.253)" fill="#ffb8b8"/>
      <path id="Tracé_8551" data-name="Tracé 8551" d="M230.849,424.952l-9.132-3.409,8.8-36.848L244,389.727Z" transform="translate(-200.939 -149.977)" fill="#ffb8b8"/>
      <path id="Tracé_8552" data-name="Tracé 8552" d="M0,11.837H30.637V0H11.418A11.418,11.418,0,0,0,0,11.418v.419Z" transform="translate(4.14 262.384) rotate(20.472)" fill="#2f2e41"/>
      <path id="Tracé_8553" data-name="Tracé 8553" d="M146.124,427.939h-9.748l-4.637-37.6h14.387Z" transform="translate(-34.053 -151.293)" fill="#ffb8b8"/>
      <path id="Tracé_8554" data-name="Tracé 8554" d="M0,11.837H30.637V0H11.418A11.418,11.418,0,0,0,0,11.418v.419Z" transform="translate(83.526 273.862)" fill="#2f2e41"/>
      <path id="Tracé_8555" data-name="Tracé 8555" d="M314.712,532.209q.164,0,.329-.016l10.333-.984a3.452,3.452,0,0,0,3.123-3.339c.6-22.378,2.1-135.318-26.965-161.2a3.365,3.365,0,0,0-1.794-.811h0c-5.264-.722-23.025-2.491-30.543,5.07a3.521,3.521,0,0,0-.952,1.737l-32.91,152.16a3.452,3.452,0,0,0,2.945,4.154l12.618,1.577a3.447,3.447,0,0,0,3.861-3.066c1.256-12.231,8.8-74.359,34.081-96.381a2.72,2.72,0,0,1,2.544-.572,2.621,2.621,0,0,1,1.814,1.785c4.68,15.314,19.815,67.51,18.076,96.226a3.445,3.445,0,0,0,3.439,3.658Z" transform="translate(-213.162 -265.822)" fill="#2f2e41"/>
      <path id="Tracé_8556" data-name="Tracé 8556" d="M300.83,304.467s-17.493-20.674-31.805-3.976h0a56.843,56.843,0,0,0-13.66,38.68l.54,18.172,33-5.168Z" transform="translate(-200.671 -249.236)" fill="#5de8c1"/>
      <path id="Tracé_8557" data-name="Tracé 8557" d="M319.843,344.533q.206,0,.412-.009a9.75,9.75,0,0,0,7.272-3.729l21.411-27.3a7.466,7.466,0,0,0-6.771-12.02l-3.014.364a8.557,8.557,0,0,0-4.963,2.8L317.3,326.17l-24.61-24.226c0-.083-.01-.166-.02-.25a8.733,8.733,0,1,0-7.855,9.741L312.7,341.418A9.748,9.748,0,0,0,319.843,344.533Z" transform="translate(-265.654 -249.243)" fill="#ffb8b8"/>
      <g id="Groupe_2968" data-name="Groupe 2968" transform="translate(62.825 0)">
        <ellipse id="Ellipse_723" data-name="Ellipse 723" cx="18.838" cy="18.838" rx="18.838" ry="18.838" transform="translate(0 7.818)" fill="#ffb8b8"/>
        <path id="Tracé_8558" data-name="Tracé 8558" d="M211.8,256.559l-8.093-9.535c-2.086-2.457-4.267-5.134-4.562-8.343-.323-3.518,1.817-6.938,4.742-8.919a20.6,20.6,0,0,1,10.041-3c6.533-.507,13.408.572,18.779,4.327s8.885,10.533,7.575,16.953c-1.031,5.056-4.831,9.9-3.354,14.843,1.616,5.41,8.242,7.069,13.653,8.682,9.081,2.708,17.753,8.038,22.512,16.233s4.738,19.494-1.606,26.533c-4.108,4.558-10.3,6.863-16.43,7.21s-12.224-1.1-18.034-3.07c-5.351-1.818-10.644-4.155-14.857-7.922s-7.247-9.157-7.116-14.807c.125-5.384,3.009-10.289,4.194-15.542a25.506,25.506,0,0,0-7.973-24.336" transform="translate(-196.018 -226.644)" fill="#2f2e41"/>
      </g>
    </g>
  </g>
</svg>
